<?xml version="1.0" standalone="no"?>
<!DOCTYPE svg PUBLIC "-//W3C//DTD SVG 20010904//EN"
 "http://www.w3.org/TR/2001/REC-SVG-20010904/DTD/svg10.dtd">
<svg version="1.0" xmlns="http://www.w3.org/2000/svg"
 width="453.000000pt" height="202.000000pt" viewBox="0 0 453.000000 202.000000"
 preserveAspectRatio="xMidYMid meet">

<g transform="translate(0.000000,202.000000) scale(0.100000,-0.100000)"
fill="#000000" stroke="none">
<path d="M527 1950 c-224 -180 -411 -443 -490 -690 -46 -144 -63 -109 170
-351 113 -118 296 -311 407 -429 326 -349 305 -330 359 -330 44 0 46 -1 62
-44 10 -25 28 -55 42 -68 22 -20 35 -23 107 -23 79 0 88 2 177 47 52 26 114
65 139 88 l45 40 -55 -35 c-115 -74 -241 -125 -313 -125 -50 0 -92 27 -115 75
-21 44 -21 45 -2 45 10 0 22 -4 25 -10 3 -5 27 -9 53 -8 40 1 42 2 12 5 -19 2
-49 10 -67 18 -17 8 -36 15 -42 15 -7 0 -24 9 -40 21 -15 11 -50 26 -77 33
l-49 12 -14 75 c-8 46 -14 147 -14 269 -1 172 2 206 22 288 43 175 110 308
200 401 l50 51 -37 -1 c-24 -1 -29 -3 -14 -6 21 -4 18 -10 -39 -71 -102 -111
-172 -275 -204 -477 -12 -76 -13 -78 -14 -29 -2 79 18 248 41 354 24 112 76
280 86 280 5 0 14 -6 22 -12 8 -7 6 -3 -3 9 -18 20 -17 23 8 73 14 29 24 54
22 56 -7 7 -78 -156 -113 -259 -96 -284 -117 -599 -58 -859 9 -40 12 -74 7
-79 -9 -9 -205 195 -558 581 -98 107 -191 209 -206 225 -28 30 -28 30 -11 64
21 45 111 142 182 196 50 38 178 115 192 115 3 0 8 -48 11 -107 14 -262 109
-571 265 -863 60 -113 122 -219 122 -209 0 3 -38 82 -84 175 -177 356 -264
640 -283 925 l-6 96 89 32 c112 41 259 77 394 96 138 19 133 20 120 -7 -10
-21 -9 -21 9 2 l20 25 -76 12 c-163 28 -288 122 -361 273 l-40 81 -75 -61z
m93 -42 c32 -66 129 -165 200 -203 30 -16 82 -36 114 -45 l59 -17 -104 -12
c-115 -14 -298 -58 -372 -90 -27 -12 -53 -21 -58 -21 -17 0 14 186 47 284 24
71 69 156 82 156 4 -1 18 -24 32 -52z m-110 -62 c-32 -71 -64 -193 -75 -288
-7 -51 -10 -58 -39 -69 -66 -28 -207 -132 -270 -200 -36 -39 -66 -68 -66 -63
0 42 99 242 180 363 54 81 287 338 296 328 3 -2 -9 -34 -26 -71z m464 -1659
c25 -18 28 -22 13 -25 -22 -4 -89 29 -95 48 -6 18 43 5 82 -23z"/>
<path d="M1010 1550 c-11 -22 -18 -40 -15 -40 2 0 14 18 25 40 11 22 18 40 15
40 -2 0 -14 -18 -25 -40z"/>
<path d="M2446 1195 l-39 -35 62 21 c36 12 61 27 61 35 0 25 -44 14 -84 -21z"/>
<path d="M1245 870 l0 -330 61 0 61 0 -5 138 -4 137 26 25 c18 16 29 21 34 13
4 -6 61 -79 127 -162 l119 -151 80 0 80 0 -41 43 c-42 43 -293 358 -293 367 0
3 54 60 119 128 65 67 112 122 104 122 -7 0 -30 -19 -51 -42 -69 -79 -285
-303 -295 -307 -6 -2 -8 60 -5 173 l4 176 -60 0 -61 0 0 -330z"/>
<path d="M1910 1123 l-31 -28 33 -32 33 -32 35 29 35 29 -29 30 c-17 17 -33
31 -38 31 -4 0 -22 -12 -38 -27z"/>
<path d="M2253 1098 c-53 -40 -59 -58 -23 -58 12 0 30 16 44 39 14 22 29 42
35 45 5 3 22 -14 38 -39 20 -32 35 -45 51 -45 12 0 22 6 21 13 0 12 -92 87
-106 86 -5 0 -32 -18 -60 -41z"/>
<path d="M4210 1112 c-20 -16 -21 -19 -7 -25 10 -4 17 -2 17 3 0 5 7 16 16 24
22 22 1 20 -26 -2z"/>
<path d="M4268 1123 c18 -7 15 -34 -8 -68 -29 -44 -25 -47 15 -11 19 18 35 40
35 49 0 15 -29 38 -47 36 -4 0 -2 -3 5 -6z"/>
<path d="M3388 1050 c-5 -70 -34 -110 -79 -110 -15 0 -31 -4 -34 -10 -4 -6 12
-10 39 -10 l46 0 0 -155 c0 -213 15 -245 114 -245 69 0 106 47 120 150 5 44 5
44 -5 10 -29 -95 -42 -122 -66 -133 -22 -10 -28 -8 -44 12 -17 21 -19 42 -19
192 l0 168 63 4 c45 2 35 4 -38 5 l-99 2 32 29 c37 34 52 68 52 117 0 33 -1
34 -39 34 l-39 0 -4 -60z"/>
<path d="M2221 937 c-50 -16 -117 -84 -130 -132 -30 -111 8 -207 103 -258 60
-32 186 -31 238 1 37 23 68 63 87 115 15 40 5 33 -18 -11 -26 -51 -85 -102
-119 -104 -51 -2 -87 4 -115 20 -39 23 -77 104 -77 164 l0 48 160 0 c121 0
160 3 160 13 -1 21 -36 91 -56 109 -51 45 -154 60 -233 35z m123 -8 c28 -13
56 -64 56 -103 l0 -26 -105 0 -105 0 6 28 c20 84 86 129 148 101z"/>
<path d="M2782 935 c-18 -8 -46 -29 -62 -47 l-30 -32 0 37 0 37 -52 0 -53 0 0
-195 0 -195 53 0 52 0 0 143 c0 134 1 144 24 178 34 50 88 75 127 59 43 -18
53 -67 46 -237 l-6 -143 55 0 56 0 -7 163 c-8 175 -18 210 -66 234 -32 17 -96
16 -137 -2z"/>
<path d="M4156 940 c-108 -34 -165 -140 -142 -265 10 -51 75 -119 133 -139
120 -41 233 -3 284 96 29 57 22 69 -9 14 -43 -78 -106 -111 -180 -95 -74 16
-116 74 -128 173 l-7 56 163 0 163 0 -6 35 c-8 48 -39 89 -84 111 -43 20 -143
28 -187 14z m108 -10 c31 -11 52 -44 61 -92 l7 -38 -106 0 c-118 0 -119 1 -92
65 14 32 66 75 93 75 6 0 23 -4 37 -10z"/>
<path d="M3890 924 c-19 -8 -54 -34 -77 -57 l-43 -41 0 52 0 52 -52 0 -53 0 0
-195 0 -195 53 0 52 0 0 135 0 134 48 36 c44 34 51 36 95 30 55 -7 77 5 77 41
0 20 -5 24 -32 24 -18 -1 -49 -8 -68 -16z"/>
<path d="M1895 735 l0 -195 53 0 52 0 0 195 0 195 -52 0 -53 0 0 -195z"/>
<path d="M3223 443 c-14 -5 -18 -23 -5 -23 5 0 17 7 28 15 14 11 15 14 4 14
-8 0 -21 -3 -27 -6z"/>
<path d="M2527 421 c-4 -17 -3 -21 5 -13 5 5 8 16 6 23 -3 8 -7 3 -11 -10z"/>
<path d="M1385 419 c-11 -17 0 -20 21 -4 17 13 17 14 2 15 -9 0 -20 -5 -23
-11z"/>
<path d="M1250 340 l0 -80 35 0 c19 0 35 5 35 10 0 6 -11 10 -25 10 -24 0 -25
2 -25 70 0 40 -4 70 -10 70 -6 0 -10 -33 -10 -80z"/>
<path d="M1690 340 c0 -47 4 -80 10 -80 6 0 10 16 10 35 0 33 2 35 35 35 33 0
35 -2 35 -35 0 -19 5 -35 10 -35 6 0 10 33 10 80 0 47 -4 80 -10 80 -5 0 -10
-16 -10 -35 0 -33 -2 -35 -35 -35 -33 0 -35 2 -35 35 0 19 -4 35 -10 35 -6 0
-10 -33 -10 -80z"/>
<path d="M2180 340 c0 -94 18 -109 22 -19 l3 62 34 -62 c48 -85 61 -81 61 19
0 94 -18 108 -22 18 l-3 -63 -35 62 c-48 86 -60 82 -60 -17z"/>
<path d="M2340 340 c0 -86 17 -111 22 -32 3 39 6 47 23 47 17 0 20 -8 23 -47
2 -36 7 -48 19 -48 13 0 15 8 9 46 -7 57 -22 77 -53 71 -19 -3 -23 0 -23 19 0
13 -4 24 -10 24 -6 0 -10 -33 -10 -80z"/>
<path d="M2844 397 c-52 -45 -20 -137 47 -137 30 0 87 39 57 40 -9 0 -20 -4
-23 -10 -10 -16 -51 -11 -68 8 -23 25 -21 65 3 87 18 16 25 17 54 7 46 -17 55
-14 27 8 -31 26 -64 25 -97 -3z"/>
<path d="M2990 340 c0 -47 4 -80 10 -80 6 0 10 20 10 45 0 32 5 47 15 51 25
10 45 -16 45 -57 0 -22 5 -39 10 -39 6 0 10 20 10 44 0 53 -21 80 -56 72 -21
-6 -24 -3 -24 19 0 14 -4 25 -10 25 -6 0 -10 -33 -10 -80z"/>
<path d="M3156 411 c-3 -5 5 -8 18 -7 13 0 22 4 19 9 -6 10 -31 9 -37 -2z"/>
<path d="M3270 401 c0 -11 -6 -22 -12 -25 -10 -5 -10 -7 0 -12 7 -3 12 -25 12
-55 0 -27 5 -49 10 -49 6 0 10 22 10 49 0 30 5 52 13 55 10 5 10 7 0 12 -7 3
-13 14 -13 25 0 10 -4 19 -10 19 -5 0 -10 -9 -10 -19z"/>
<path d="M3390 340 l0 -80 35 0 c19 0 35 5 35 10 0 6 -9 10 -20 10 -18 0 -20
7 -20 70 0 56 -3 70 -15 70 -12 0 -15 -16 -15 -80z"/>
<path d="M4116 399 c-37 -29 -37 -89 0 -118 34 -27 76 -27 99 -1 16 17 16 20
2 20 -9 0 -19 -4 -22 -10 -10 -16 -51 -11 -68 8 -42 46 4 118 59 93 38 -17 52
-13 25 9 -30 26 -62 25 -95 -1z"/>
<path d="M1405 383 c-40 -6 -65 -30 -65 -63 0 -55 62 -78 101 -39 15 15 19 28
14 47 -3 15 -6 35 -6 45 0 9 -3 16 -7 16 -4 -1 -20 -4 -37 -6z m19 -39 c19
-18 19 -20 6 -45 -18 -33 -70 -18 -70 21 0 19 19 40 36 40 7 0 20 -7 28 -16z"/>
<path d="M3573 382 c-6 -4 -13 -28 -15 -52 -2 -37 -6 -45 -23 -45 -17 0 -20 8
-23 48 -4 62 -22 61 -22 -2 0 -57 12 -70 63 -68 l37 1 0 47 c0 26 3 54 6 63 7
17 -3 21 -23 8z"/>
<path d="M3670 380 c-58 -14 -78 -62 -40 -100 25 -25 62 -26 83 -2 20 22 22
63 5 80 -9 9 -9 12 0 12 7 0 12 5 12 10 0 11 -11 11 -60 0z m34 -42 c8 -13 8
-23 0 -35 -16 -26 -51 -28 -64 -4 -25 47 36 83 64 39z"/>
<path d="M1480 300 c0 -47 4 -80 10 -80 6 0 10 11 10 25 0 22 3 24 30 18 57
-11 89 45 54 95 -17 24 -53 29 -72 10 -9 -9 -12 -9 -12 0 0 7 -4 12 -10 12 -6
0 -10 -33 -10 -80z m90 45 c15 -18 10 -45 -12 -59 -35 -22 -74 27 -48 59 16
19 44 19 60 0z"/>
<path d="M1850 360 c-39 -39 -14 -100 43 -100 28 0 57 32 57 62 0 24 -35 58
-60 58 -11 0 -29 -9 -40 -20z m70 -15 c26 -32 -13 -81 -47 -59 -23 14 -28 41
-13 59 16 19 44 19 60 0z"/>
<path d="M1992 364 c-27 -19 -29 -64 -4 -87 23 -21 66 -22 83 -1 11 14 9 15
-22 9 -26 -5 -39 -2 -48 9 -29 35 12 82 50 58 27 -17 40 -5 15 14 -25 18 -46
18 -74 -2z"/>
<path d="M2480 360 c-11 -11 -20 -29 -20 -40 0 -27 35 -60 63 -60 50 0 76 70
39 103 -25 23 -58 21 -82 -3z m74 -22 c8 -13 8 -23 0 -35 -28 -45 -89 -9 -64
38 13 24 48 22 64 -3z"/>
<path d="M3135 364 c-8 -8 -15 -31 -15 -49 0 -41 20 -55 73 -52 l37 2 0 55 0
55 -40 2 c-24 2 -45 -3 -55 -13z m59 -10 c18 -7 22 -59 5 -69 -5 -4 -21 -4
-35 -1 -18 5 -24 13 -24 35 0 35 20 48 54 35z"/>
<path d="M3760 319 c0 -70 18 -80 22 -11 3 39 6 47 23 47 17 0 20 -8 23 -47 2
-34 7 -48 18 -48 18 0 19 55 1 90 -10 19 -21 25 -50 27 l-37 1 0 -59z"/>
<path d="M3900 360 c-11 -11 -20 -29 -20 -40 0 -43 60 -76 88 -48 9 9 12 8 12
-5 0 -24 -35 -40 -59 -27 -25 13 -31 13 -31 0 0 -6 12 -15 26 -20 26 -10 61 1
76 24 12 17 9 136 -2 136 -5 0 -10 -5 -10 -12 0 -9 -3 -9 -12 0 -18 18 -45 15
-68 -8z m74 -22 c8 -13 8 -23 0 -35 -16 -26 -51 -28 -64 -4 -25 47 36 83 64
39z"/>
<path d="M4277 362 c-21 -23 -22 -66 -1 -86 18 -19 38 -20 65 -6 13 7 19 7 19
0 0 -5 5 -10 10 -10 6 0 10 27 10 60 0 33 -4 60 -10 60 -5 0 -10 -5 -10 -10 0
-7 -6 -7 -19 0 -28 15 -46 12 -64 -8z m73 -22 c22 -40 -26 -80 -58 -48 -25 25
-6 68 30 68 9 0 22 -9 28 -20z"/>
<path d="M4420 360 c-24 -24 -25 -48 -4 -78 30 -43 104 -17 104 36 0 28 -34
62 -60 62 -11 0 -29 -9 -40 -20z m70 -15 c15 -18 10 -45 -12 -59 -35 -22 -74
27 -48 59 16 19 44 19 60 0z"/>
<path d="M2670 330 c0 -5 11 -10 25 -10 14 0 25 5 25 10 0 6 -11 10 -25 10
-14 0 -25 -4 -25 -10z"/>
<path d="M1880 230 c0 -5 5 -10 10 -10 6 0 10 5 10 10 0 6 -4 10 -10 10 -5 0
-10 -4 -10 -10z"/>
<path d="M3660 230 c0 -5 5 -10 10 -10 6 0 10 5 10 10 0 6 -4 10 -10 10 -5 0
-10 -4 -10 -10z"/>
</g>
</svg>
